<svg width="1017" height="992" viewBox="0 0 1017 992" fill="none" xmlns="http://www.w3.org/2000/svg">
<path d="M498.495 0.0958967C426.318 -2.45419 344.812 45.9567 330.743 133.134C312.537 122.76 292.358 114.083 270.925 109.877L259.397 107.617H247.65C66.9878 107.606 76.6331 258.797 141.237 351.697C117.42 356.844 93.12 363.913 70.5296 374.412L8.19186 403.382L1.17581 471.776C-12.353 603.643 94.2379 619.571 147.585 619.429C141.114 629.419 134.736 639.483 128.566 649.689L112.081 676.964L111.171 708.824C107.771 827.853 218.771 873.287 311.261 839.93C317.338 887.657 339.383 948.395 408.146 980.021L420.408 985.661L433.612 988.458C526.567 1008.15 615.163 943.341 629.411 852.801L630.406 846.475C641.274 850.908 652.742 854.65 664.982 857.189L669.465 858.119L674.004 858.707C865.283 883.488 865.137 692.898 793.597 606.189C787.429 598.648 781.187 591.175 774.893 583.765C812.737 583.183 852.638 581.646 893.65 574.939L886.452 575.896C1075.16 556.569 1052 292.516 863.939 304.141L867.758 303.965C846.913 304.593 824.883 305.076 803.402 305.549C868.035 197.312 759.05 66.9738 640.08 104.47C619.031 38.8084 559.483 2.25263 498.495 0.0978503V0.0958967ZM793.597 606.187C793.709 606.324 793.824 606.457 793.935 606.594L793.513 606.08C793.542 606.115 793.568 606.153 793.597 606.187V606.187Z" fill="#075EFF"/>
<path d="M458.279 870.134C418.257 851.727 434.148 799.988 432.058 764.855C434.378 686.998 438.068 609.202 441.839 531.408C396.036 587.487 355.933 648.479 301.87 697.338C290.769 719.758 230.515 752.919 231.675 712.309C281.418 630.016 342.862 555.491 403.986 481.513C332.751 480.478 262.297 491.35 191.583 497.641C172.822 495.271 118.378 510.667 121.098 484.154C166.811 462.909 219.094 462.805 268.187 454.72C310.9 449.465 353.933 448.089 396.865 446.057C351.772 395.804 306.251 345.912 255.987 300.725C235.786 283.794 196.254 228.621 247.247 228.624C285.659 236.161 311.83 271.626 342.402 294.149C378.964 326.995 412.747 362.74 445.339 399.5C449.379 319.064 442.778 238.313 449.109 158.043C450.619 115.586 522.423 104.78 526.573 151.399C525.423 217.174 525.624 282.998 526.424 348.791C573.387 305.759 616.049 256.572 670.152 222.27C707.395 202.853 703.894 244.982 681.823 261.133C633.7 324.164 574.756 378.141 524.033 438.723C549.695 441.093 583.177 435.915 611.619 435.033C697.874 427.368 784.559 427.523 871.005 424.917C902.736 422.956 905.037 452.371 873.735 455.576C798.471 467.886 721.405 459.256 645.621 467.392C604.788 470.568 563.876 472.773 523.023 475.357C520.183 490.838 538.524 498.012 545.565 509.632C596.768 567.668 650.941 623.297 699.894 683.193C716.775 703.617 733.447 744.5 689.144 738.761C651.201 730.892 624.72 696.331 598.888 669.425C572.447 639.692 545.675 610.228 518.773 580.924C513.473 665.177 511.952 749.665 509.532 834.017C505.472 859.817 483.901 875.563 458.279 870.134V870.134Z" fill="#FBF4EC"/>
</svg>
