<svg width="1037" height="1007" viewBox="0 0 1037 1007" fill="none" xmlns="http://www.w3.org/2000/svg">
<path d="M700.103 0.107759C643.301 1.36665 587.164 14.0706 540.086 29.0852C531.769 30.6334 524.2 32.7294 517.683 35.0358C515.728 35.7276 513.884 36.4935 512.014 37.2433C445.884 4.62146 370.776 8.01873 318.735 19.1395C221.941 34.796 159.853 110.607 135.045 181.933L134.038 184.826L133.181 187.768C118.115 239.367 118.668 291.465 129.413 339.895C24.9816 399.321 -24.4965 529.275 11.8621 642.731C31.4766 711.718 80.1407 754.551 135.563 777.924C135.989 792.847 137.489 807.934 140.596 822.829L140.636 823.003L140.676 823.177C165.128 938.701 275.997 1004.64 374.612 1006.64C437.808 1009.76 499.925 992.442 552.307 959.378C604.816 985.008 665.127 993.872 722.098 982.915L714.897 984.075C849.283 966.542 928.074 840.805 933.035 730.163L933.085 729.057L933.115 727.954C934.726 667.28 921.727 605.53 895.984 549.346C922.836 526.844 947.181 501.412 968.333 473.51L969.282 472.26L970.197 470.984C1015.74 407.544 1053.28 308.46 1029.77 211.342L1026.98 199.812L1022 189.042C993.617 127.657 943.455 84.1359 905.352 56.8005L903.146 55.2182L900.872 53.7354C835.569 11.189 764.584 -1.32097 700.111 0.107759H700.103ZM374.605 1006.64C373.288 1006.58 371.978 1006.62 370.661 1006.53L377.111 1006.77C376.282 1006.76 375.436 1006.66 374.605 1006.64Z" fill="#FF8064"/>
<path d="M378.366 885.826C325.329 885.328 270.655 852.422 259.171 798.159C250.815 758.11 260.744 716.645 271.743 678.082C216.481 686.818 143.208 668.125 127.597 607.188C106.724 544.501 136.885 469.917 196.876 441.05C221.401 420.512 270.926 415.438 286.39 401.121C250.625 349.925 231.606 282.823 249.448 221.69C263.861 180.269 296.746 143.144 342.494 137.778C393.009 126.606 456.548 128.581 491.448 172.025C505.045 210.851 538.516 146.526 566.794 147.64C652.034 118.828 755.128 103.129 834.916 155.112C865.856 177.312 896.101 204.862 912.274 239.828C925.731 295.409 904.546 355.138 872.003 400.468C834.002 450.595 782.33 490.09 723.712 513.118C782.002 566.191 814.349 646.364 812.265 724.769C809.405 788.572 766.751 855.352 699.352 864.146C641.068 875.354 577.218 849.354 546.69 797.777C511.66 855.546 445.902 890.068 378.366 885.826ZM398.797 849.577C461.518 826.244 486.831 757.622 508.477 700.102C518.3 667.68 574.083 669.361 592.273 692.863C604.578 743.387 614.554 806.116 665.813 832.27C703.726 833.707 722.521 787.344 731.399 756.19C743.645 698.474 726.304 638.144 700.836 586.338C691.894 553.152 644.678 534.933 645.297 503.836C680.491 487.978 717.895 474.632 747.776 448.848C804.095 403.323 847.609 331.201 834.826 256.687C820.463 217.296 785.823 186.789 749.89 166.503C708.337 146.361 659.829 162.281 618.373 174.888C575.375 194.144 539.465 230.143 519.808 272.842C507.59 290.714 496.896 336.326 467.399 307.834C456.393 269.382 451.329 228.26 426.936 194.913C411.919 154.56 356.284 164.033 344.449 201.019C313.549 253.35 328.752 319.529 356.65 369.676C366.275 393.854 417.889 438.393 365.216 444.954C334.514 448.115 303.743 434.56 276.741 457.56C237.143 474.218 212.527 512.613 206.571 554.286C201.625 585.777 210.099 646.859 252.319 642.219C289.606 635.853 307.923 593.452 347.035 595.429C376.701 589.591 409.213 614.261 377.089 638.293C350.744 690.014 334.702 750.868 346.408 808.602C353.937 828.505 372.951 859.803 398.797 849.577Z" fill="#212121"/>
</svg>
