<svg width="1200" height="800" viewBox="0 0 1200 800" fill="none" xmlns="http://www.w3.org/2000/svg">
<ellipse cx="600" cy="400" rx="600" ry="400" fill="#075EFF"/>
<path d="M221.534 598.157V491.442H190V469.806H279.624V491.442H248.09V598.157H221.534Z" fill="#FBF4EC"/>
<path d="M341.065 599.624C337.131 599.624 333.258 599.319 329.447 598.707C325.636 598.096 321.947 596.996 318.382 595.407C314.94 593.695 311.743 591.495 308.793 588.806C305.965 586.117 303.629 583.061 301.785 579.638C300.064 576.215 298.835 572.609 298.097 568.82C297.359 564.908 296.99 561.058 296.99 557.268V510.695C296.99 506.906 297.359 503.116 298.097 499.327C298.835 495.415 300.125 491.748 301.97 488.325C303.814 484.903 306.15 481.847 308.977 479.157C311.805 476.468 314.94 474.329 318.382 472.74C321.947 471.028 325.636 469.806 329.447 469.073C333.258 468.217 337.131 467.789 341.065 467.789C344.999 467.789 348.872 468.217 352.683 469.073C356.494 469.806 360.121 471.028 363.563 472.74C367.128 474.329 370.325 476.468 373.152 479.157C375.98 481.847 378.316 484.903 380.16 488.325C382.004 491.748 383.295 495.415 384.033 499.327C384.77 503.116 385.139 506.906 385.139 510.695V557.268C385.139 561.058 384.77 564.908 384.033 568.82C383.295 572.609 382.004 576.215 380.16 579.638C378.439 583.061 376.103 586.117 373.152 588.806C370.325 591.495 367.128 593.695 363.563 595.407C360.121 596.996 356.494 598.096 352.683 598.707C348.872 599.319 344.999 599.624 341.065 599.624ZM341.065 577.988C343.647 577.988 346.167 577.499 348.626 576.521C351.084 575.421 353.052 573.832 354.527 571.754C356.125 569.675 357.17 567.414 357.662 564.969C358.277 562.402 358.584 559.835 358.584 557.268V510.695C358.584 508.128 358.277 505.561 357.662 502.994C357.17 500.427 356.125 498.166 354.527 496.21C352.929 494.132 350.9 492.604 348.441 491.626C345.982 490.526 343.462 489.975 340.88 489.975C338.299 489.975 335.778 490.526 333.319 491.626C330.984 492.726 329.017 494.315 327.418 496.393C325.943 498.349 324.898 500.61 324.283 503.177C323.792 505.622 323.546 508.128 323.546 510.695V557.268C323.546 559.835 323.792 562.402 324.283 564.969C324.898 567.414 325.943 569.675 327.418 571.754C329.017 573.832 331.045 575.421 333.504 576.521C335.963 577.499 338.483 577.988 341.065 577.988Z" fill="#FBF4EC"/>
<path d="M526.548 599.624C522.983 599.624 519.356 599.38 515.668 598.891C512.103 598.402 508.66 597.485 505.341 596.14C502.021 594.796 498.886 593.023 495.936 590.823C493.108 588.623 490.649 586.056 488.559 583.122C486.592 580.066 485.056 576.765 483.949 573.22C482.966 569.675 482.474 566.131 482.474 562.586C482.474 562.463 482.474 562.402 482.474 562.402H509.029C509.029 564.603 509.459 566.803 510.32 569.003C511.181 571.081 512.471 572.854 514.193 574.321C515.914 575.665 517.819 576.643 519.909 577.254C522.122 577.743 524.335 577.988 526.548 577.988C528.884 577.988 531.097 577.743 533.187 577.254C535.4 576.643 537.367 575.665 539.088 574.321C540.932 572.854 542.285 571.081 543.145 569.003C544.129 566.925 544.621 564.786 544.621 562.586C544.621 560.019 543.944 557.635 542.592 555.435C541.363 553.112 539.703 551.278 537.613 549.934C535.523 548.467 533.249 547.428 530.79 546.817C528.331 546.083 525.872 545.411 523.413 544.8C520.954 544.189 518.496 543.516 516.037 542.783C513.701 542.049 511.365 541.194 509.029 540.216C506.816 539.116 504.603 537.893 502.39 536.549C500.3 535.204 498.333 533.737 496.489 532.148C494.645 530.437 492.924 528.603 491.326 526.647C489.85 524.569 488.559 522.43 487.453 520.23C486.469 517.907 485.67 515.523 485.056 513.079C484.564 510.512 484.318 508.006 484.318 505.561C484.318 502.016 484.81 498.532 485.793 495.11C486.777 491.565 488.191 488.325 490.035 485.392C492.002 482.336 494.338 479.707 497.042 477.507C499.87 475.185 502.944 473.351 506.263 472.006C509.582 470.539 513.025 469.562 516.59 469.073C520.155 468.584 523.721 468.339 527.286 468.339C530.728 468.339 534.171 468.584 537.613 469.073C541.178 469.562 544.621 470.478 547.94 471.823C551.259 473.168 554.271 475.001 556.976 477.324C559.804 479.524 562.14 482.091 563.984 485.025C565.951 487.959 567.426 491.137 568.41 494.559C569.393 497.982 569.885 501.466 569.885 505.011C569.885 505.011 569.885 505.072 569.885 505.194H543.33C543.33 505.194 543.33 505.133 543.33 505.011C543.33 502.933 542.961 500.916 542.223 498.96C541.486 497.004 540.318 495.354 538.719 494.009C537.244 492.543 535.461 491.503 533.371 490.892C531.404 490.281 529.376 489.975 527.286 489.975C525.073 489.975 522.921 490.281 520.831 490.892C518.741 491.503 516.897 492.543 515.299 494.009C513.824 495.476 512.656 497.249 511.795 499.327C511.058 501.283 510.689 503.3 510.689 505.378C510.689 507.945 511.304 510.389 512.533 512.712C513.885 514.912 515.606 516.746 517.696 518.213C519.786 519.557 521.999 520.596 524.335 521.33C526.794 521.941 529.253 522.552 531.712 523.163C534.171 523.775 536.568 524.447 538.904 525.18C541.363 525.914 543.76 526.831 546.096 527.931C548.432 528.909 550.645 530.07 552.735 531.415C554.948 532.637 556.976 534.104 558.82 535.815C560.664 537.527 562.324 539.421 563.799 541.499C565.398 543.455 566.688 545.594 567.672 547.917C568.778 550.117 569.578 552.44 570.069 554.885C570.684 557.329 570.991 559.835 570.991 562.402C570.991 565.947 570.438 569.492 569.332 573.037C568.348 576.582 566.811 579.882 564.721 582.938C562.754 585.872 560.296 588.5 557.345 590.823C554.517 593.023 551.382 594.796 547.94 596.14C544.621 597.485 541.117 598.402 537.429 598.891C533.863 599.38 530.236 599.624 526.548 599.624Z" fill="#FBF4EC"/>
<path d="M619.892 598.157V491.442H588.358V469.806H677.982V491.442H646.447V598.157H619.892Z" fill="#FBF4EC"/>
<path d="M699.59 598.157V469.806H726.145V598.157H699.59Z" fill="#FBF4EC"/>
<path d="M792.18 599.624C788.369 599.624 784.496 599.319 780.562 598.707C776.751 598.096 773.124 596.935 769.682 595.223C766.24 593.512 763.105 591.312 760.277 588.623C757.449 585.933 755.113 582.877 753.269 579.455C751.548 576.032 750.319 572.426 749.581 568.636C748.843 564.847 748.475 561.058 748.475 557.268V510.695C748.475 506.906 748.843 503.116 749.581 499.327C750.319 495.537 751.548 491.931 753.269 488.509C755.113 485.086 757.449 482.03 760.277 479.341C763.105 476.651 766.24 474.451 769.682 472.74C773.124 471.028 776.751 469.867 780.562 469.256C784.496 468.645 788.369 468.339 792.18 468.339C795.745 468.339 799.311 468.645 802.876 469.256C806.441 469.745 809.884 470.662 813.203 472.006C816.522 473.351 819.596 475.185 822.424 477.507C825.251 479.83 827.587 482.519 829.431 485.575C831.398 488.509 832.874 491.748 833.857 495.293C834.841 498.716 835.394 502.199 835.517 505.744H808.962C808.962 503.544 808.531 501.466 807.671 499.51C806.933 497.432 805.765 495.66 804.167 494.193C802.569 492.604 800.725 491.503 798.635 490.892C796.545 490.281 794.393 489.975 792.18 489.975C789.598 489.975 787.078 490.526 784.619 491.626C782.283 492.604 780.378 494.132 778.902 496.21C777.427 498.288 776.382 500.61 775.767 503.177C775.276 505.622 775.03 508.128 775.03 510.695V557.268C775.03 559.835 775.276 562.402 775.767 564.969C776.382 567.414 777.427 569.675 778.902 571.754C780.378 573.832 782.283 575.421 784.619 576.521C787.078 577.499 789.598 577.988 792.18 577.988C794.393 577.988 796.545 577.682 798.635 577.071C800.725 576.46 802.569 575.421 804.167 573.954C805.765 572.365 806.933 570.592 807.671 568.636C808.531 566.558 808.962 564.419 808.962 562.219H835.517C835.394 565.764 834.841 569.309 833.857 572.854C832.874 576.276 831.398 579.516 829.431 582.572C827.587 585.505 825.251 588.134 822.424 590.456C819.596 592.779 816.522 594.612 813.203 595.957C809.884 597.302 806.441 598.218 802.876 598.707C799.311 599.319 795.745 599.624 792.18 599.624Z" fill="#FBF4EC"/>
<path d="M859.522 598.157V469.806H886.077V519.68L916.321 469.806H945.642L905.44 533.982L945.642 598.157H916.321L886.077 548.284V598.157H859.522Z" fill="#FBF4EC"/>
<path d="M978.499 546.817V469.806H1005.05V546.817H978.499ZM991.777 599.624C989.318 599.624 986.921 599.257 984.585 598.524C982.249 597.791 980.22 596.568 978.499 594.857C976.778 593.145 975.549 591.128 974.811 588.806C974.073 586.483 973.704 584.1 973.704 581.655C973.704 579.21 974.073 576.826 974.811 574.504C975.549 572.181 976.778 570.164 978.499 568.453C980.22 566.742 982.249 565.519 984.585 564.786C986.921 564.052 989.318 563.686 991.777 563.686C994.236 563.686 996.633 564.052 998.969 564.786C1001.3 565.519 1003.33 566.742 1005.05 568.453C1006.78 570.164 1008 572.181 1008.74 574.504C1009.48 576.826 1009.85 579.21 1009.85 581.655C1009.85 584.1 1009.48 586.483 1008.74 588.806C1008 591.128 1006.78 593.145 1005.05 594.857C1003.33 596.568 1001.3 597.791 998.969 598.524C996.633 599.257 994.236 599.624 991.777 599.624Z" fill="#FBF4EC"/>
<path d="M267.424 433.458C260.673 433.458 253.812 432.914 246.843 431.828C240.092 430.741 233.667 428.676 227.569 425.632C221.471 422.589 215.917 418.677 210.908 413.894C205.899 409.112 201.761 403.678 198.494 397.591C195.445 391.505 193.267 385.093 191.96 378.354C190.653 371.615 190 364.877 190 358.138V275.32C190 268.581 190.653 261.842 191.96 255.104C193.267 248.365 195.445 241.953 198.494 235.866C201.761 229.78 205.899 224.346 210.908 219.564C215.917 214.781 221.471 210.869 227.569 207.825C233.667 204.782 240.092 202.717 246.843 201.63C253.812 200.543 260.673 200 267.424 200C273.74 200 280.056 200.543 286.372 201.63C292.688 202.5 298.786 204.13 304.666 206.521C310.547 208.912 315.992 212.173 321.001 216.303C326.01 220.433 330.148 225.215 333.415 230.649C336.899 235.866 339.513 241.627 341.255 247.931C342.997 254.017 343.978 260.212 344.195 266.516H297.153C297.153 262.603 296.39 258.908 294.866 255.43C293.559 251.735 291.49 248.583 288.659 245.974C285.828 243.148 282.561 241.192 278.858 240.105C275.156 239.018 271.345 238.475 267.424 238.475C262.851 238.475 258.386 239.453 254.03 241.409C249.892 243.148 246.517 245.866 243.903 249.561C241.29 253.256 239.438 257.386 238.349 261.951C237.478 266.299 237.043 270.755 237.043 275.32V358.138C237.043 362.703 237.478 367.268 238.349 371.833C239.438 376.18 241.29 380.202 243.903 383.897C246.517 387.592 249.892 390.418 254.03 392.374C258.386 394.113 262.851 394.983 267.424 394.983C271.345 394.983 275.156 394.44 278.858 393.353C282.561 392.266 285.828 390.418 288.659 387.81C291.49 384.984 293.559 381.832 294.866 378.354C296.39 374.659 297.153 370.855 297.153 366.942H344.195C343.978 373.246 342.997 379.55 341.255 385.853C339.513 391.94 336.899 397.7 333.415 403.134C330.148 408.351 326.01 413.025 321.001 417.155C315.992 421.285 310.547 424.546 304.666 426.937C298.786 429.328 292.688 430.958 286.372 431.828C280.056 432.914 273.74 433.458 267.424 433.458Z" fill="#FBF4EC"/>
<path d="M390.314 430.849V202.608H437.03V392.374H534.382V430.849H390.314Z" fill="#FBF4EC"/>
<path d="M573.967 430.849V202.608H621.01V430.849H573.967Z" fill="#FBF4EC"/>
<path d="M737.991 433.458C731.24 433.458 724.379 432.914 717.41 431.828C710.658 430.741 704.234 428.676 698.135 425.632C692.037 422.589 686.484 418.677 681.475 413.894C676.465 409.112 672.327 403.678 669.061 397.591C666.011 391.505 663.834 385.093 662.527 378.354C661.22 371.615 660.567 364.877 660.567 358.138V275.32C660.567 268.581 661.22 261.842 662.527 255.104C663.834 248.365 666.011 241.953 669.061 235.866C672.327 229.78 676.465 224.346 681.475 219.564C686.484 214.781 692.037 210.869 698.135 207.825C704.234 204.782 710.658 202.717 717.41 201.63C724.379 200.543 731.24 200 737.991 200C744.307 200 750.623 200.543 756.939 201.63C763.255 202.5 769.353 204.13 775.233 206.521C781.113 208.912 786.558 212.173 791.567 216.303C796.577 220.433 800.715 225.215 803.981 230.649C807.466 235.866 810.08 241.627 811.822 247.931C813.564 254.017 814.544 260.212 814.762 266.516H767.719C767.719 262.603 766.957 258.908 765.433 255.43C764.126 251.735 762.057 248.583 759.226 245.974C756.394 243.148 753.127 241.192 749.425 240.105C745.723 239.018 741.911 238.475 737.991 238.475C733.417 238.475 728.953 239.453 724.597 241.409C720.459 243.148 717.083 245.866 714.47 249.561C711.856 253.256 710.005 257.386 708.916 261.951C708.045 266.299 707.609 270.755 707.609 275.32V358.138C707.609 362.703 708.045 367.268 708.916 371.833C710.005 376.18 711.856 380.202 714.47 383.897C717.083 387.592 720.459 390.418 724.597 392.374C728.953 394.113 733.417 394.983 737.991 394.983C741.911 394.983 745.723 394.44 749.425 393.353C753.127 392.266 756.394 390.418 759.226 387.81C762.057 384.984 764.126 381.832 765.433 378.354C766.957 374.659 767.719 370.855 767.719 366.942H814.762C814.544 373.246 813.564 379.55 811.822 385.853C810.08 391.94 807.466 397.7 803.981 403.134C800.715 408.351 796.577 413.025 791.567 417.155C786.558 421.285 781.113 424.546 775.233 426.937C769.353 429.328 763.255 430.958 756.939 431.828C750.623 432.914 744.307 433.458 737.991 433.458Z" fill="#FBF4EC"/>
<path d="M857.287 430.849V202.608H904.33V291.296L957.906 202.608H1009.85L938.632 316.729L1009.85 430.849H957.906L904.33 342.161V430.849H857.287Z" fill="#FBF4EC"/>
</svg>
