<svg width="1800" height="600" viewBox="0 0 1800 600" fill="none" xmlns="http://www.w3.org/2000/svg">
<rect width="1800" height="600" rx="245.774" fill="#075EFF"/>
<path d="M390.783 359.576V299.501C390.783 292.492 384.775 286.484 377.766 286.484H257.282C231.583 286.484 210.223 265.124 210.223 239.425C210.223 213.393 231.249 192.366 257.282 192.366H377.766C385.109 192.366 390.783 186.025 390.783 179.016C390.783 172.008 384.775 166 377.766 166H197.207C193.869 166 190.198 167.335 187.862 169.671C185.525 172.008 183.857 175.679 183.857 179.016C183.857 204.715 162.496 226.409 136.798 226.409C129.455 226.409 123.781 231.749 123.781 239.092V299.501C123.781 306.51 129.789 312.517 136.798 312.517H257.282C282.981 312.517 304.341 333.877 304.341 359.576C304.341 385.275 282.981 406.969 257.282 406.969L136.798 406.635C129.789 406.635 123.781 412.643 123.781 419.651C123.781 426.994 129.455 433.001 136.798 433.001H317.357C324.7 433.001 330.707 426.994 330.707 419.651C330.707 393.619 352.067 372.926 377.766 372.926C385.109 372.926 390.783 366.585 390.783 359.576Z" fill="#FBF4EC"/>
<path d="M684.119 179.016C684.119 172.008 678.112 166 671.103 166H430.134C423.125 166 417.118 172.008 417.118 179.016V239.425C417.118 246.434 423.125 252.442 430.134 252.442H490.543C502.892 252.442 514.573 257.782 523.585 266.459C532.596 275.137 537.602 286.818 537.602 299.501V419.985C537.602 426.994 543.61 433.001 550.619 433.001C557.961 433.001 563.969 426.994 563.969 419.651L563.635 239.425C563.635 213.393 584.661 192.366 610.694 192.366H671.103C678.445 192.366 684.119 186.025 684.119 179.016Z" fill="#FBF4EC"/>
<path d="M977.456 299.501V179.016C977.456 175.679 976.121 172.341 973.451 170.005V169.671C971.115 167.335 967.777 166 964.439 166H723.471C716.462 166 710.454 172.008 710.454 179.016V419.985C710.454 426.994 716.462 433.001 723.471 433.001C730.479 433.001 736.821 427.328 736.821 419.985V359.576C736.821 333.543 757.847 312.517 783.88 312.517C796.562 312.517 808.244 317.523 816.921 326.535C825.599 335.546 830.939 347.227 830.939 359.576V419.985C830.939 426.994 836.946 433.001 843.955 433.001H904.03C911.039 433.001 917.381 427.328 917.381 419.985V359.576C917.381 333.877 938.073 312.517 964.106 312.517C971.115 312.517 977.456 306.843 977.456 299.501ZM951.423 238.758C951.423 264.791 930.063 286.151 904.03 286.151H783.88C758.515 286.151 736.821 264.457 736.821 239.092C736.821 213.059 757.847 192.033 783.88 192.033L904.03 191.699C929.062 191.699 951.423 213.727 951.423 238.758Z" fill="#FBF4EC"/>
<path d="M1090.23 419.651V179.016C1090.23 172.008 1084.23 166 1077.22 166C1069.87 166 1063.87 171.674 1063.87 179.016V239.425C1063.87 264.791 1042.17 286.484 1016.81 286.484C1013.47 286.484 1010.13 287.819 1007.8 290.156C1005.46 292.492 1003.79 295.829 1003.79 299.501V419.985C1003.79 426.994 1009.8 433.001 1016.81 433.001H1077.22C1084.56 433.001 1090.23 426.66 1090.23 419.651Z" fill="#FBF4EC"/>
<path d="M1383.24 359.576V239.092C1383.24 235.754 1381.9 232.417 1379.23 230.08V229.747C1377.23 227.744 1374.23 226.409 1371.22 226.409C1344.86 226.409 1323.16 205.716 1323.16 179.016C1323.16 175.345 1321.49 172.008 1319.16 169.671C1316.82 167.335 1313.15 166 1309.81 166H1129.25C1122.24 166 1116.24 172.008 1116.24 179.016V419.985C1116.24 426.994 1122.24 433.001 1129.25 433.001H1309.81C1316.82 433.001 1323.16 427.328 1323.16 419.985C1323.16 394.286 1343.86 372.926 1369.89 372.926C1377.23 372.926 1383.24 366.919 1383.24 359.576ZM1296.8 359.242C1296.8 371.591 1291.79 383.606 1283.11 392.284C1274.1 401.295 1262.42 406.301 1249.74 406.301L1189.66 406.635C1163.96 406.635 1142.6 384.607 1142.6 359.242V239.092C1142.6 213.059 1163.63 192.033 1189.66 192.033L1249.74 191.699C1275.44 191.699 1296.8 213.727 1296.8 239.092V359.242Z" fill="#FBF4EC"/>
<path d="M1676.57 419.651C1676.57 412.643 1670.57 406.635 1663.56 406.635L1483 406.969C1457.3 406.969 1435.94 385.275 1435.94 359.576C1435.94 333.543 1456.97 312.517 1483 312.517L1663.22 312.851C1670.57 312.851 1676.57 306.843 1676.57 299.501V179.016C1676.57 172.008 1670.57 166 1663.56 166H1422.59C1415.58 166 1409.57 172.008 1409.57 179.016V419.985C1409.57 426.994 1415.58 433.001 1422.59 433.001H1663.22C1670.57 433.001 1676.57 426.994 1676.57 419.651ZM1650.54 239.425C1650.54 265.124 1628.85 286.484 1603.15 286.484H1543.07C1517.71 286.484 1496.01 264.791 1496.01 239.425C1496.01 213.393 1517.04 192.366 1543.07 192.366L1603.15 192.033C1628.51 192.033 1650.54 214.06 1650.54 239.425Z" fill="#FBF4EC"/>
</svg>
