<svg width="1200" height="800" viewBox="0 0 1200 800" fill="none" xmlns="http://www.w3.org/2000/svg">
<ellipse cx="600" cy="400" rx="600" ry="400" fill="#F9F017"/>
<path d="M178.172 546.041C171.076 546.041 163.981 545.407 156.885 544.14C149.79 543.127 142.948 541.099 136.359 538.058C130.024 535.018 124.195 531.09 118.874 526.275C113.552 521.207 109.117 515.632 105.569 509.55C102.022 503.214 99.3608 496.626 97.5869 489.784C95.8131 482.688 94.9261 475.593 94.9261 468.497H149.283C149.283 472.552 149.79 476.606 150.803 480.661C152.07 484.715 153.971 488.39 156.505 491.684C159.039 494.725 162.207 497.133 166.008 498.906C170.063 500.427 174.117 501.187 178.172 501.187C181.466 501.187 184.634 500.68 187.675 499.667C190.969 498.4 193.757 496.626 196.037 494.345C198.571 492.064 200.599 489.53 202.119 486.743C203.64 483.702 204.78 480.661 205.54 477.62C206.554 474.325 207.187 471.158 207.441 468.117C207.694 464.823 207.821 461.528 207.821 458.234V276.918H262.178V458.234C262.178 465.836 261.544 473.439 260.277 481.041C259.01 488.643 256.729 495.992 253.435 503.088C250.394 509.93 246.213 516.265 240.891 522.094C235.57 527.922 229.488 532.737 222.646 536.538C216.057 540.086 208.835 542.493 200.979 543.76C193.376 545.281 185.774 546.041 178.172 546.041ZM407.828 546.041C399.719 546.041 391.736 545.407 383.881 544.14C376.025 542.873 368.422 540.593 361.074 537.298C353.978 533.75 347.389 529.189 341.307 523.614C335.479 518.039 330.664 511.704 326.863 504.608C323.315 497.513 320.781 490.037 319.261 482.181C317.74 474.072 316.98 466.09 316.98 458.234V361.684C316.98 353.828 317.74 345.973 319.261 338.117C320.781 330.008 323.442 322.405 327.243 315.31C331.044 308.214 335.859 301.879 341.688 296.304C347.516 290.729 353.978 286.294 361.074 283C368.422 279.452 376.025 276.918 383.881 275.397C391.736 273.624 399.719 272.737 407.828 272.737C415.937 272.737 423.92 273.624 431.775 275.397C439.631 276.918 447.107 279.452 454.202 283C461.551 286.294 468.14 290.729 473.968 296.304C479.797 301.879 484.612 308.214 488.413 315.31C492.214 322.405 494.875 330.008 496.395 338.117C497.916 345.973 498.676 353.828 498.676 361.684V458.234C498.676 466.09 497.916 474.072 496.395 482.181C494.875 490.037 492.214 497.513 488.413 504.608C484.865 511.704 480.05 518.039 473.968 523.614C468.14 529.189 461.551 533.75 454.202 537.298C447.107 540.593 439.631 542.873 431.775 544.14C423.92 545.407 415.937 546.041 407.828 546.041ZM407.828 501.187C413.15 501.187 418.345 500.173 423.413 498.146C428.481 495.865 432.536 492.571 435.577 488.263C438.871 483.955 441.025 479.267 442.038 474.199C443.306 468.877 443.939 463.555 443.939 458.234V361.684C443.939 356.362 443.306 351.041 442.038 345.719C441.025 340.397 438.871 335.709 435.577 331.655C432.282 327.347 428.101 324.179 423.033 322.152C417.964 319.871 412.769 318.731 407.448 318.731C402.126 318.731 396.931 319.871 391.863 322.152C387.048 324.433 382.994 327.727 379.699 332.035C376.658 336.09 374.504 340.778 373.237 346.099C372.224 351.167 371.717 356.362 371.717 361.684V458.234C371.717 463.555 372.224 468.877 373.237 474.199C374.504 479.267 376.658 483.955 379.699 488.263C382.994 492.571 387.175 495.865 392.243 498.146C397.311 500.173 402.506 501.187 407.828 501.187ZM539.034 543V276.918H630.262C637.104 276.918 643.819 277.551 650.408 278.818C657.25 279.832 663.712 281.859 669.794 284.9C676.129 287.688 681.831 291.489 686.899 296.304C691.968 300.865 696.149 306.187 699.443 312.269C702.738 318.097 705.018 324.433 706.285 331.275C707.552 337.863 708.186 344.579 708.186 351.421C708.186 356.489 707.806 361.557 707.046 366.626C706.285 371.694 704.765 376.509 702.484 381.07C700.457 385.631 697.669 389.939 694.122 393.994C690.574 397.795 686.646 401.09 682.338 403.877C688.166 406.411 693.615 409.706 698.683 413.76C703.751 417.815 707.932 422.503 711.227 427.824C714.775 433.146 717.182 438.975 718.449 445.31C719.97 451.645 720.73 457.98 720.73 464.316C720.73 471.918 719.843 479.394 718.069 486.743C716.295 494.092 713.381 501.06 709.326 507.649C705.272 513.984 700.203 519.559 694.122 524.374C688.04 528.936 681.451 532.737 674.355 535.778C667.513 538.565 660.291 540.466 652.689 541.48C645.34 542.493 637.864 543 630.262 543H539.034ZM630.262 382.971C634.063 382.971 637.611 382.21 640.905 380.69C644.199 378.916 646.86 376.509 648.888 373.468C650.915 370.173 652.182 366.752 652.689 363.205C653.449 359.657 653.829 355.982 653.829 352.181C653.829 348.633 653.449 345.086 652.689 341.538C652.182 337.737 650.915 334.316 648.888 331.275C646.86 328.234 644.073 325.953 640.525 324.433C637.231 322.659 633.81 321.772 630.262 321.772H593.771V382.971H630.262ZM593.771 498.146H630.262C635.077 498.146 639.765 497.513 644.326 496.246C649.141 494.725 653.196 492.318 656.49 489.023C660.038 485.729 662.445 481.801 663.712 477.24C665.233 472.678 665.993 467.99 665.993 463.175C665.993 458.361 665.233 453.672 663.712 449.111C662.445 444.55 660.038 440.622 656.49 437.327C653.196 433.78 649.141 431.372 644.326 430.105C639.765 428.838 635.077 428.205 630.262 428.205H593.771V498.146ZM845.093 546.041C837.744 546.041 830.269 545.534 822.667 544.52C815.318 543.507 808.222 541.606 801.38 538.819C794.538 536.031 788.076 532.357 781.994 527.795C776.165 523.234 771.097 517.912 766.789 511.83C762.735 505.495 759.567 498.653 757.286 491.304C755.259 483.955 754.245 476.606 754.245 469.257C754.245 469.004 754.245 468.877 754.245 468.877H808.982C808.982 473.439 809.869 478 811.643 482.561C813.417 486.869 816.078 490.544 819.626 493.585C823.173 496.372 827.101 498.4 831.409 499.667C835.971 500.68 840.532 501.187 845.093 501.187C849.908 501.187 854.47 500.68 858.778 499.667C863.339 498.4 867.394 496.372 870.941 493.585C874.743 490.544 877.53 486.869 879.304 482.561C881.331 478.253 882.345 473.819 882.345 469.257C882.345 463.936 880.951 458.994 878.164 454.433C875.63 449.618 872.208 445.817 867.9 443.029C863.592 439.988 858.904 437.834 853.836 436.567C848.768 435.047 843.7 433.653 838.631 432.386C833.563 431.119 828.495 429.725 823.427 428.205C818.612 426.684 813.797 424.91 808.982 422.883C804.421 420.602 799.859 418.068 795.298 415.281C790.99 412.493 786.935 409.452 783.134 406.158C779.333 402.61 775.785 398.809 772.491 394.754C769.45 390.446 766.789 386.012 764.509 381.45C762.481 376.635 760.834 371.694 759.567 366.626C758.553 361.304 758.047 356.109 758.047 351.041C758.047 343.692 759.06 336.47 761.088 329.374C763.115 322.025 766.029 315.31 769.83 309.228C773.885 302.893 778.7 297.444 784.275 292.883C790.103 288.068 796.438 284.267 803.281 281.479C810.123 278.438 817.218 276.411 824.567 275.397C831.916 274.384 839.265 273.877 846.614 273.877C853.709 273.877 860.805 274.384 867.9 275.397C875.249 276.411 882.345 278.312 889.187 281.099C896.029 283.887 902.238 287.688 907.813 292.503C913.641 297.064 918.456 302.386 922.257 308.468C926.312 314.55 929.353 321.138 931.38 328.234C933.407 335.329 934.421 342.552 934.421 349.9C934.421 349.9 934.421 350.027 934.421 350.281H879.684C879.684 350.281 879.684 350.154 879.684 349.9C879.684 345.592 878.924 341.411 877.403 337.357C875.883 333.302 873.476 329.881 870.181 327.093C867.14 324.052 863.466 321.898 859.158 320.631C855.103 319.364 850.922 318.731 846.614 318.731C842.052 318.731 837.618 319.364 833.31 320.631C829.002 321.898 825.201 324.052 821.906 327.093C818.865 330.134 816.458 333.809 814.684 338.117C813.164 342.171 812.403 346.353 812.403 350.661C812.403 355.982 813.67 361.051 816.205 365.865C818.992 370.427 822.54 374.228 826.848 377.269C831.156 380.056 835.717 382.21 840.532 383.731C845.6 384.998 850.668 386.265 855.737 387.532C860.805 388.799 865.746 390.193 870.561 391.713C875.63 393.234 880.571 395.134 885.386 397.415C890.201 399.442 894.762 401.85 899.07 404.637C903.631 407.171 907.813 410.212 911.614 413.76C915.415 417.308 918.836 421.236 921.877 425.544C925.171 429.598 927.832 434.033 929.86 438.848C932.14 443.409 933.787 448.224 934.801 453.292C936.068 458.361 936.702 463.555 936.702 468.877C936.702 476.226 935.561 483.575 933.281 490.924C931.253 498.273 928.086 505.115 923.778 511.45C919.723 517.532 914.655 522.98 908.573 527.795C902.745 532.357 896.283 536.031 889.187 538.819C882.345 541.606 875.123 543.507 867.52 544.52C860.171 545.534 852.696 546.041 845.093 546.041ZM1010.13 436.567V276.918H1064.87V436.567H1010.13ZM1037.5 546.041C1032.43 546.041 1027.49 545.281 1022.67 543.76C1017.86 542.24 1013.68 539.706 1010.13 536.158C1006.58 532.61 1004.05 528.429 1002.53 523.614C1001.01 518.799 1000.25 513.858 1000.25 508.789C1000.25 503.721 1001.01 498.78 1002.53 493.965C1004.05 489.15 1006.58 484.969 1010.13 481.421C1013.68 477.873 1017.86 475.339 1022.67 473.819C1027.49 472.298 1032.43 471.538 1037.5 471.538C1042.57 471.538 1047.51 472.298 1052.32 473.819C1057.14 475.339 1061.32 477.873 1064.87 481.421C1068.41 484.969 1070.95 489.15 1072.47 493.965C1073.99 498.78 1074.75 503.721 1074.75 508.789C1074.75 513.858 1073.99 518.799 1072.47 523.614C1070.95 528.429 1068.41 532.61 1064.87 536.158C1061.32 539.706 1057.14 542.24 1052.32 543.76C1047.51 545.281 1042.57 546.041 1037.5 546.041Z" fill="#212121"/>
</svg>
