<svg width="1016" height="876" viewBox="0 0 1016 876" fill="none" xmlns="http://www.w3.org/2000/svg">
<path d="M769.979 0.00103565C765.752 -0.0149681 761.425 0.154396 756.999 0.516781C701.75 5.04154 660.109 45.2317 644.33 62.7325C607.436 15.4051 541.424 -7.63271 468.042 27.5348L454.876 33.8449L443.588 43.1068C400.108 78.7853 370.97 125.642 348.999 150.136L349.784 149.27C300.379 203.289 261.301 264.407 227.247 320.201C182.901 309.242 130.735 308.408 79.9552 337.127L64.8521 345.668L52.7592 358.112C-22.652 435.707 -8.62635 556.485 41.1096 625.192L41.9358 626.335L42.7894 627.458C77.9357 673.7 117.458 717.944 160.932 758.188L163.332 760.411L165.852 762.501C178.856 773.294 280.142 881.034 399.885 802.087L410.493 795.093L419.418 786.046C426.905 778.456 434.168 770.713 441.326 762.908C454.868 824.568 501.128 875.587 589.723 875.657C695.035 881.011 779.475 822.688 832.167 772.56L833.403 771.384L834.603 770.177C897.772 706.597 946.596 631.773 983.312 555.373C1087.54 397.798 914.125 333.565 857.929 318.163C856.399 317.542 854.729 316.85 853.327 316.284C852.58 315.982 851.987 315.735 851.28 315.45C857.276 289.463 870.217 257.709 875.933 208.79C877.557 206.397 879.055 204.405 880.744 201.642C884.471 195.543 888.695 187.788 892.399 179.008L912.044 132.446L892.731 85.7457C874.523 41.7131 833.392 0.23539 769.979 0.00103565V0.00103565ZM789.964 646.222L787.672 650.7C788.225 649.672 788.693 648.656 789.223 647.631C789.471 647.127 789.716 646.732 789.964 646.222Z" fill="#F9F017"/>
<path d="M596.266 754.734C548.562 755.71 555.803 703.636 575.375 676.32C591.046 639.048 626.209 607.746 624.969 564.914C604.387 522.192 558.282 499.691 533.52 459.737C466.454 537.991 410.299 627.175 337.432 701.044C303.888 723.16 271.645 689.646 247.213 669.368C209.259 634.234 174.476 595.355 143.203 554.209C120.271 522.53 114.909 471.923 143.612 442.389C182.956 420.138 229.781 443.681 264.314 464.989C291.287 488.374 297.878 427.335 316.84 412.31C355.034 349.22 393.147 285.554 443.152 230.881C470.835 200.02 492.186 163.049 524.429 136.591C565.943 116.696 564.273 162.277 542.521 184.291C497.897 251.734 437.801 307.314 394.237 375.629C365.834 416.641 333.941 455.475 307.868 497.931C286.106 524.922 249.183 497.109 227.19 482.121C207.899 467.809 175.416 448.294 184.877 489.046C183.977 545.74 232.301 583.321 263.774 624.497C279.586 634.504 297.028 675.612 313.299 668.607C389.087 576.439 454.022 476.019 528.899 383.114C589.635 308.519 646.851 230.325 717.778 164.846C734.01 151.452 771.203 98.3957 785.075 131.941C775.644 154.295 744.211 172.055 760.473 190.966C754.622 248.658 724.949 304.291 732.85 363.369C743.151 404.18 788.185 418.332 822.798 432.76C853.641 439.194 913.497 451.769 882.334 494.95C849.841 564.517 807.116 630.32 752.921 684.868C711.047 724.704 656.312 759.352 596.266 754.734V754.734ZM626.269 730.483C679.354 713.421 721.168 671.425 753.912 627.585C785.915 583.721 818.818 538.119 835.32 485.951C822.809 454.961 770.553 466.412 744.541 445.384C708.617 429.681 669.624 402.67 669.084 359.051C665.754 332.038 677.844 294.035 678.975 274.652C638.031 323.893 598.467 374.277 559.543 425.129C596.177 446.981 626.369 478.201 657.652 506.928C682.215 528.526 702.837 560.698 685.275 593.341C663.243 638.72 622.489 675.604 610.988 725.842C612.768 732.403 621.379 731.062 626.269 730.483V730.483Z" fill="#212121"/>
</svg>
