<svg width="1200" height="800" viewBox="0 0 1200 800" fill="none" xmlns="http://www.w3.org/2000/svg">
<ellipse cx="600" cy="400" rx="600" ry="400" fill="#FF8064"/>
<path d="M94.7212 503.634V297.357H148.648C154.934 297.357 161.123 297.849 167.213 298.831C173.499 299.813 179.491 301.679 185.188 304.43C190.886 307.18 196.19 310.618 201.101 314.744C206.013 318.869 210.335 323.486 214.067 328.594C217.8 333.701 220.845 339.202 223.202 345.096C225.756 350.793 227.721 356.785 229.096 363.071C230.668 369.161 231.748 375.35 232.337 381.636C232.927 387.923 233.221 394.209 233.221 400.496C233.221 406.782 232.927 413.069 232.337 419.356C231.748 425.642 230.668 431.929 229.096 438.215C227.721 444.305 225.756 450.297 223.202 456.191C220.845 461.888 217.8 467.29 214.067 472.398C210.335 477.506 206.013 482.123 201.101 486.248C196.19 490.374 190.886 493.812 185.188 496.562C179.491 499.312 173.499 501.179 167.213 502.161C161.123 503.143 154.934 503.634 148.648 503.634H94.7212ZM137.155 468.862H148.648C152.381 468.862 156.015 468.371 159.551 467.389C163.284 466.21 166.623 464.54 169.57 462.379C172.517 460.022 175.071 457.369 177.232 454.423C179.589 451.279 181.554 448.038 183.126 444.698C184.697 441.162 185.974 437.626 186.956 434.09C187.939 430.357 188.725 426.624 189.314 422.892C189.903 419.159 190.296 415.426 190.493 411.694C190.689 407.961 190.787 404.229 190.787 400.496C190.787 396.763 190.689 393.031 190.493 389.298C190.296 385.565 189.903 381.833 189.314 378.1C188.725 374.368 187.939 370.733 186.956 367.197C185.974 363.464 184.697 359.928 183.126 356.588C181.554 353.052 179.589 349.811 177.232 346.864C175.071 343.721 172.517 341.069 169.57 338.908C166.623 336.55 163.284 334.88 159.551 333.898C156.015 332.719 152.381 332.13 148.648 332.13H137.155V468.862Z" fill="#212121"/>
<path d="M266.866 503.634V297.357H400.651V332.13H309.3V378.984H380.024V413.757H309.3V468.862H400.651V503.634H266.866Z" fill="#212121"/>
<path d="M501.778 505.992C496.08 505.992 490.285 505.599 484.391 504.813C478.694 504.027 473.194 502.554 467.889 500.393C462.585 498.232 457.575 495.383 452.86 491.847C448.342 488.311 444.413 484.186 441.073 479.471C437.93 474.559 435.474 469.255 433.706 463.558C432.135 457.861 431.349 452.163 431.349 446.466C431.349 446.27 431.349 446.172 431.349 446.172H473.783C473.783 449.708 474.47 453.244 475.846 456.78C477.221 460.12 479.284 462.968 482.034 465.326C484.784 467.487 487.829 469.059 491.169 470.041C494.705 470.827 498.241 471.22 501.778 471.22C505.51 471.22 509.046 470.827 512.386 470.041C515.922 469.059 519.066 467.487 521.816 465.326C524.763 462.968 526.924 460.12 528.299 456.78C529.871 453.44 530.656 450.002 530.656 446.466C530.656 442.341 529.576 438.51 527.415 434.974C525.45 431.241 522.798 428.294 519.458 426.133C516.119 423.776 512.484 422.106 508.555 421.124C504.626 419.945 500.697 418.864 496.768 417.882C492.839 416.9 488.91 415.819 484.981 414.641C481.248 413.462 477.515 412.087 473.783 410.515C470.247 408.747 466.711 406.783 463.174 404.622C459.835 402.461 456.691 400.103 453.745 397.549C450.798 394.799 448.047 391.852 445.493 388.709C443.136 385.369 441.073 381.931 439.305 378.395C437.733 374.662 436.457 370.831 435.474 366.902C434.688 362.777 434.296 358.749 434.296 354.82C434.296 349.123 435.081 343.524 436.653 338.023C438.225 332.326 440.484 327.12 443.431 322.405C446.574 317.494 450.307 313.27 454.629 309.734C459.147 306.001 464.058 303.055 469.363 300.894C474.667 298.536 480.168 296.965 485.865 296.179C491.562 295.393 497.259 295 502.956 295C508.457 295 513.958 295.393 519.458 296.179C525.156 296.965 530.656 298.438 535.961 300.599C541.265 302.76 546.078 305.707 550.4 309.439C554.918 312.976 558.651 317.101 561.598 321.816C564.741 326.531 567.099 331.639 568.67 337.139C570.242 342.64 571.028 348.239 571.028 353.936C571.028 353.936 571.028 354.035 571.028 354.231H528.594C528.594 354.231 528.594 354.133 528.594 353.936C528.594 350.597 528.004 347.355 526.826 344.212C525.647 341.069 523.78 338.416 521.227 336.255C518.869 333.898 516.021 332.228 512.681 331.246C509.538 330.264 506.296 329.772 502.956 329.772C499.42 329.772 495.982 330.264 492.642 331.246C489.303 332.228 486.356 333.898 483.802 336.255C481.445 338.613 479.578 341.461 478.203 344.801C477.024 347.944 476.435 351.186 476.435 354.526C476.435 358.651 477.417 362.58 479.382 366.313C481.543 369.849 484.293 372.796 487.633 375.153C490.973 377.314 494.509 378.984 498.241 380.163C502.171 381.145 506.1 382.127 510.029 383.11C513.958 384.092 517.789 385.173 521.521 386.351C525.45 387.53 529.281 389.003 533.014 390.771C536.746 392.343 540.283 394.209 543.622 396.37C547.159 398.335 550.4 400.692 553.347 403.443C556.294 406.193 558.946 409.238 561.303 412.578C563.857 415.721 565.92 419.159 567.492 422.892C569.26 426.428 570.537 430.161 571.322 434.09C572.305 438.019 572.796 442.046 572.796 446.172C572.796 451.869 571.912 457.566 570.144 463.263C568.572 468.96 566.116 474.265 562.777 479.176C559.633 483.891 555.704 488.115 550.989 491.847C546.471 495.383 541.461 498.232 535.961 500.393C530.656 502.554 525.057 504.027 519.164 504.813C513.467 505.599 507.671 505.992 501.778 505.992Z" fill="#212121"/>
<path d="M608.503 503.634V297.357H650.937V503.634H608.503Z" fill="#212121"/>
<path d="M739.367 505.992C733.866 505.992 728.464 505.206 723.159 503.634C717.855 502.259 713.042 499.902 708.72 496.562C704.594 493.222 701.058 489.293 698.111 484.775C695.165 480.06 692.807 475.149 691.039 470.041C689.467 464.737 688.289 459.432 687.503 454.128C686.913 448.627 686.619 443.225 686.619 437.921V363.071C686.619 356.981 687.208 350.891 688.387 344.801C689.566 338.711 691.53 332.916 694.281 327.415C697.227 321.914 700.96 317.003 705.478 312.681C709.997 308.359 715.006 304.823 720.507 302.072C726.008 299.322 731.803 297.456 737.893 296.473C744.18 295.491 750.368 295 756.458 295C762.156 295 767.853 295.491 773.55 296.473C779.247 297.259 784.748 298.733 790.052 300.894C795.356 303.055 800.268 306.001 804.786 309.734C809.305 313.467 813.037 317.789 815.984 322.7C819.127 327.415 821.485 332.621 823.056 338.318C824.628 343.819 825.512 349.418 825.708 355.115H783.274C783.274 351.579 782.587 348.239 781.212 345.096C780.033 341.756 778.167 338.908 775.613 336.55C773.059 333.996 770.112 332.228 766.772 331.246C763.432 330.264 759.995 329.772 756.458 329.772C752.333 329.772 748.305 330.656 744.376 332.425C740.644 333.996 737.599 336.452 735.241 339.792C732.884 343.131 731.214 346.864 730.232 350.989C729.446 354.919 729.053 358.946 729.053 363.071V437.921C729.053 442.046 729.446 446.172 730.232 450.297C731.214 454.226 732.884 457.861 735.241 461.2C737.795 464.54 740.938 467.094 744.671 468.862C748.6 470.434 752.628 471.22 756.753 471.22C759.503 471.22 762.156 470.925 764.709 470.335C767.263 469.55 769.621 468.371 771.782 466.799C773.943 465.031 775.711 463.067 777.086 460.906C778.658 458.548 779.836 456.093 780.622 453.539C781.408 450.985 781.899 448.431 782.096 445.877C782.489 443.127 782.685 440.474 782.685 437.921V422.597H757.048V387.53H825.119V503.634H786.516V467.978C784.944 473.282 782.783 478.39 780.033 483.301C777.283 488.016 773.845 492.142 769.719 495.678C765.593 499.214 760.879 501.866 755.574 503.634C750.27 505.206 744.868 505.992 739.367 505.992Z" fill="#212121"/>
<path d="M858.764 503.634V297.357H898.546L958.366 438.51C956.598 428.884 955.124 419.159 953.946 409.336C952.963 399.514 952.472 389.691 952.472 379.868V297.357H994.906V503.634H955.124L895.304 362.482C897.072 372.108 898.447 381.833 899.43 391.656C900.608 401.478 901.198 411.301 901.198 421.124V503.634H858.764Z" fill="#212121"/>
<path d="M1054.19 421.124V297.357H1096.62V421.124H1054.19ZM1075.41 505.992C1071.48 505.992 1067.65 505.403 1063.91 504.224C1060.18 503.045 1056.94 501.081 1054.19 498.33C1051.44 495.58 1049.47 492.338 1048.29 488.606C1047.12 484.873 1046.53 481.042 1046.53 477.113C1046.53 473.184 1047.12 469.353 1048.29 465.621C1049.47 461.888 1051.44 458.646 1054.19 455.896C1056.94 453.146 1060.18 451.181 1063.91 450.002C1067.65 448.824 1071.48 448.234 1075.41 448.234C1079.33 448.234 1083.16 448.824 1086.9 450.002C1090.63 451.181 1093.87 453.146 1096.62 455.896C1099.37 458.646 1101.34 461.888 1102.52 465.621C1103.69 469.353 1104.28 473.184 1104.28 477.113C1104.28 481.042 1103.69 484.873 1102.52 488.606C1101.34 492.338 1099.37 495.58 1096.62 498.33C1093.87 501.081 1090.63 503.045 1086.9 504.224C1083.16 505.403 1079.33 505.992 1075.41 505.992Z" fill="#212121"/>
</svg>
