<svg width="1012" height="955" viewBox="0 0 1012 955" fill="none" xmlns="http://www.w3.org/2000/svg">
<path d="M509.732 0.0239709C487.513 -0.230268 448.779 1.28125 410.181 17.1731C308.521 33.3571 210.487 81.747 137.149 158.107C4.16126 292.235 -42.5445 509.6 43.7222 686.152C123.397 850.58 298.851 950.691 473.406 954.624C639.676 961.027 810.536 885.271 913.034 749.076C1011.21 621.657 1044.79 437.82 975.028 282.45C902.311 112.4 726.717 8.31974 552.779 0.8112L548.707 0.635392L544.631 0.733552C535.78 0.947884 525.1 0.200286 509.732 0.0244592V0.0239709ZM975.028 282.45C975.22 282.9 975.435 283.337 975.626 283.788L974.397 280.987C974.617 281.472 974.81 281.964 975.028 282.45V282.45ZM913.034 749.076C912.843 749.323 912.664 749.58 912.472 749.828L913.594 748.355C913.411 748.598 913.217 748.832 913.034 749.076ZM473.406 954.624C473.184 954.614 472.961 954.625 472.738 954.615L475.313 954.688C474.678 954.676 474.042 954.635 473.406 954.621V954.624ZM43.7222 686.152C43.6722 686.057 43.6226 685.966 43.5796 685.871L43.8219 686.367C43.7919 686.296 43.7513 686.223 43.7213 686.152H43.7222ZM137.149 158.107C137.5 157.752 137.833 157.38 138.185 157.026L136.34 158.913C136.603 158.637 136.885 158.382 137.149 158.107Z" fill="#F9F017"/>
<path d="M477.612 833.795C344.041 831.321 211.521 755.162 152.559 633.254C89.7697 504.934 124.322 342.255 223.88 242.516C282.036 181.657 362.719 143.724 446.016 134.368C475.052 115.235 514.116 122.517 547.617 121.705C680.302 127.433 811.533 206.481 864.27 330.999C915.203 443.262 891.176 579.778 816.834 675.855C738.571 780.261 607.151 838.954 477.612 833.795ZM519.595 806.727C672.463 794.162 805.188 663.928 821.227 511.074C838.762 384.627 775.79 249.558 662.523 188.496C605.369 155.393 537.819 145.573 472.824 152.311C442.669 147.679 414.771 168.104 387.57 179.114C282.107 233.752 201.681 340.012 191.424 460.183C177.575 592.454 252.187 732.722 377.103 783.615C421.774 803.147 471.094 810.681 519.595 806.727ZM501.416 682.192C449.767 678.017 396.652 664.409 353.497 634.83C334.628 616.109 299.288 579.863 313.904 555.091C350.542 555.887 358.599 604.233 386.805 622.215C420.752 647.549 463.824 659.834 505.486 664.379C567.093 666.085 629.478 634.818 666.175 585.554C679.64 548.874 736.816 571.328 698.145 601.526C649.199 655.419 573.857 685.414 501.416 682.192ZM370.706 491.828C343.569 473.659 348.77 427.642 345.479 396.858C335.557 363.493 366.843 306.499 397.945 346.765C410.108 392.936 406.97 443.646 391.944 488.283C385.897 492.781 377.736 491.755 370.706 491.828ZM650.424 479.077C616.803 472.827 637.849 418.604 627.97 400.017C606.486 426.14 589.35 460.637 557.752 475.288C502.698 479.511 561.25 423.346 573.891 403.946C580.233 389.048 625.158 359.095 613.84 353.864C584.031 351.245 548.722 365.207 522.625 349.226C554.183 333.44 595.504 337.273 631.27 335.914C678.032 323.36 678.073 371.28 675.959 403.882C669.687 427.848 692.645 483.939 650.424 479.077Z" fill="#212121"/>
</svg>
